<?xml version="1.0" encoding="UTF-8"?><svg id="Layer_1" xmlns="http://www.w3.org/2000/svg" width="284.02" height="145.59" viewBox="0 0 284.02 145.59"><path d="M0,70.28l22.55-36.35L1.11,0h17.82l13.69,23.76h.3L46.82,0h16.51l-21.65,34.23,22.86,36.04h-17.72l-15.2-25.88h-.3l-14.8,25.88H0Z" fill="#bc68f0"/><path d="M98.01,47.07h-29.58v-14.34h29.58v14.34Z" fill="#bc68f0"/><path d="M126.1,44.78v25.5h-15.14V.75h32.97c4.32,0,8.03.93,11.16,2.79,3.12,1.86,5.54,4.45,7.27,7.77,1.73,3.32,2.59,7.21,2.59,11.65s-1.05,8.75-3.14,12.3c-2.09,3.55-5.26,6.13-9.51,7.72l13.65,27.29h-16.83l-12.15-25.5h-10.86ZM126.1,32.03h15.94c1.53,0,2.82-.26,3.88-.8,1.06-.53,1.89-1.31,2.49-2.34.6-1.03.9-2.27.9-3.74v-4.38c0-1.53-.3-2.79-.9-3.79-.6-1-1.43-1.76-2.49-2.29-1.06-.53-2.36-.8-3.88-.8h-15.94v18.13Z" fill="#bc68f0"/><path d="M223.12,70.28h-8.17c-1.79,0-3.47-.45-5.03-1.34-1.56-.9-2.81-2.22-3.74-3.98-.93-1.76-1.39-3.87-1.39-6.33v-1.3l3.19,3.79h-3.59c-.8,3.39-2.56,5.96-5.28,7.72-2.72,1.76-6.08,2.64-10.06,2.64-5.25,0-9.26-1.41-12.05-4.23-2.79-2.82-4.18-6.49-4.18-11.01,0-3.72.91-6.77,2.74-9.16,1.83-2.39,4.42-4.18,7.77-5.38,3.35-1.2,7.32-1.79,11.9-1.79h8.27v-3.29c0-2.52-.66-4.53-1.99-6.03-1.33-1.49-3.55-2.24-6.67-2.24-2.92,0-5.25.63-6.97,1.89-1.73,1.26-3.16,2.69-4.28,4.28l-8.77-7.77c2.12-3.12,4.81-5.56,8.07-7.32,3.25-1.76,7.6-2.64,13.05-2.64,7.37,0,12.93,1.64,16.69,4.93,3.75,3.29,5.63,8.02,5.63,14.19v22.91h4.88v11.46ZM203.5,48.26h-7.17c-2.86,0-5.01.5-6.47,1.49-1.46,1-2.19,2.46-2.19,4.38v1.49c0,1.86.6,3.25,1.79,4.18,1.2.93,2.89,1.39,5.08,1.39,1.66,0,3.15-.23,4.48-.7,1.33-.46,2.41-1.2,3.24-2.19.83-1,1.25-2.29,1.25-3.88v-6.18Z" fill="#bc68f0"/><path d="M256.39,42.39l7.67-24.4h13.75l-20.12,60.36c-.86,2.66-1.98,4.86-3.34,6.62-1.36,1.76-3.07,3.07-5.13,3.93-2.06.86-4.58,1.3-7.57,1.3h-9.16v-11.46h9.86l1.79-5.78-18.33-54.99h14.64l7.67,24.4,3.78,15.14h.6l3.88-15.14Z" fill="#bc68f0"/><path d="M1.88,132.61v-45.29h10.45l6.03,11.55,5.06,9.67h.13l5-9.67,5.97-11.55h10.51v45.29h-9.28v-29.72h-.2l-3.31,6.62-8.82,16.03-8.63-15.96-3.44-7.14h-.19v30.17H1.88Z" fill="#bc68f0"/><path d="M85.01,132.61h-5.32c-1.17,0-2.26-.29-3.28-.88-1.02-.58-1.83-1.45-2.43-2.6-.61-1.15-.91-2.52-.91-4.12v-.84l2.08,2.47h-2.34c-.52,2.21-1.67,3.88-3.44,5.03-1.77,1.15-3.96,1.72-6.55,1.72-3.42,0-6.03-.92-7.85-2.76-1.82-1.84-2.72-4.23-2.72-7.17,0-2.42.59-4.41,1.78-5.97,1.19-1.56,2.88-2.73,5.06-3.5,2.18-.78,4.77-1.17,7.75-1.17h5.39v-2.14c0-1.64-.43-2.95-1.3-3.93-.87-.97-2.31-1.46-4.35-1.46-1.9,0-3.42.41-4.54,1.23-1.13.82-2.06,1.75-2.79,2.79l-5.71-5.06c1.38-2.03,3.14-3.62,5.26-4.77,2.12-1.15,4.95-1.72,8.5-1.72,4.8,0,8.42,1.07,10.87,3.21,2.44,2.14,3.67,5.22,3.67,9.25v14.92h3.18v7.46ZM72.22,118.27h-4.67c-1.86,0-3.27.32-4.22.97-.95.65-1.43,1.6-1.43,2.85v.97c0,1.21.39,2.12,1.17,2.73.78.61,1.88.91,3.31.91,1.08,0,2.05-.15,2.92-.45.86-.3,1.57-.78,2.11-1.43.54-.65.81-1.49.81-2.53v-4.02Z" fill="#bc68f0"/><path d="M108.69,132.61h-5.71c-3.29,0-5.8-.84-7.53-2.53-1.73-1.69-2.6-4.15-2.6-7.4v-16.68h-4.8v-7.46h2.4c1.3,0,2.18-.31,2.66-.94.48-.63.71-1.52.71-2.69v-5.58h8.63v9.21h6.75v7.46h-6.75v19.14h6.23v7.46Z" fill="#bc68f0"/><path d="M129.39,133.39c-5.1,0-9.03-1.61-11.78-4.83-2.75-3.22-4.12-7.56-4.12-13.01s1.37-9.78,4.12-12.98c2.75-3.2,6.67-4.8,11.78-4.8,3.46,0,6.35.78,8.66,2.34,2.31,1.56,3.97,3.74,4.96,6.55l-7.79,3.37c-.3-1.3-.93-2.4-1.88-3.31-.95-.91-2.27-1.36-3.96-1.36-1.95,0-3.42.64-4.41,1.91-1,1.28-1.49,3-1.49,5.16v6.36c0,2.12.5,3.83,1.49,5.13.99,1.3,2.47,1.95,4.41,1.95s3.32-.52,4.25-1.56c.93-1.04,1.63-2.23,2.11-3.57l7.46,3.24c-1.13,3.24-2.88,5.62-5.26,7.14-2.38,1.51-5.23,2.27-8.57,2.27Z" fill="#bc68f0"/><path d="M149.18,132.61v-48.02h9.6v19.73h.39c.61-1.77,1.66-3.31,3.18-4.61,1.51-1.3,3.61-1.95,6.29-1.95,3.46,0,6.1,1.18,7.92,3.54,1.82,2.36,2.73,5.68,2.73,9.96v21.35h-9.6v-20.57c0-2.16-.35-3.79-1.04-4.87-.69-1.08-1.93-1.62-3.7-1.62-1.04,0-2.02.18-2.95.55-.93.37-1.7.92-2.3,1.65-.61.74-.91,1.67-.91,2.79v22.06h-9.6Z" fill="#bc68f0"/><path d="M188.11,87.32h9.6v27.77c0,2.12.27,3.88.81,5.29.54,1.41,1.42,2.47,2.63,3.18,1.21.71,2.79,1.07,4.74,1.07s3.51-.36,4.7-1.07c1.19-.71,2.07-1.77,2.63-3.18.56-1.41.84-3.17.84-5.29v-27.77h9.6v26.73c0,4.46-.58,8.11-1.75,10.97-1.17,2.86-3.05,4.96-5.65,6.33-2.6,1.36-6.06,2.04-10.38,2.04s-7.79-.68-10.38-2.04c-2.6-1.36-4.48-3.47-5.65-6.33-1.17-2.85-1.75-6.51-1.75-10.97v-26.73Z" fill="#bc68f0"/><path d="M232.89,145.59v-47.04h9.6v5.71h.32c.48-1.9,1.57-3.46,3.28-4.67,1.71-1.21,3.67-1.82,5.87-1.82,2.9,0,5.31.68,7.24,2.04,1.92,1.36,3.38,3.36,4.38,6,.99,2.64,1.49,5.88,1.49,9.73s-.5,7.11-1.49,9.77c-1,2.66-2.46,4.67-4.38,6.03-1.93,1.36-4.34,2.04-7.24,2.04-2.21,0-4.16-.62-5.87-1.85-1.71-1.23-2.8-2.78-3.28-4.64h-.32v18.69h-9.6ZM248.79,125.61c1.82,0,3.32-.65,4.51-1.95,1.19-1.3,1.78-3.01,1.78-5.13v-5.9c0-2.16-.6-3.88-1.78-5.16-1.19-1.28-2.69-1.91-4.51-1.91-1.21,0-2.29.19-3.24.58-.95.39-1.7.96-2.24,1.72-.54.76-.81,1.66-.81,2.69v10.06c0,1.04.27,1.94.81,2.69.54.76,1.29,1.33,2.24,1.72.95.39,2.03.58,3.24.58Z" fill="#bc68f0"/><path d="M278.24,133.39c-2.03,0-3.5-.48-4.41-1.43-.91-.95-1.36-2.12-1.36-3.5v-1.56c0-1.38.45-2.55,1.36-3.5.91-.95,2.38-1.43,4.41-1.43s3.5.48,4.41,1.43c.91.95,1.36,2.12,1.36,3.5v1.56c0,1.39-.45,2.55-1.36,3.5-.91.95-2.38,1.43-4.41,1.43ZM280.39,118.34h-4.09l-3.05-18.43v-12.59h10.12v12.59l-2.99,18.43Z" fill="#bc68f0"/><path d="M0,70.28l22.55-36.35L1.11,0h17.82l13.69,23.76h.3L46.82,0h16.51l-21.65,34.23,22.86,36.04h-17.72l-15.2-25.88h-.3l-14.8,25.88H0Z" fill="#b2b2b2"/><path d="M98.01,47.07h-29.58v-14.34h29.58v14.34Z" fill="#b2b2b2"/><path d="M126.1,44.78v25.5h-15.14V.75h32.97c4.32,0,8.03.93,11.16,2.79,3.12,1.86,5.54,4.45,7.27,7.77,1.73,3.32,2.59,7.21,2.59,11.65s-1.05,8.75-3.14,12.3c-2.09,3.55-5.26,6.13-9.51,7.72l13.65,27.29h-16.83l-12.15-25.5h-10.86ZM126.1,32.03h15.94c1.53,0,2.82-.26,3.88-.8,1.06-.53,1.89-1.31,2.49-2.34.6-1.03.9-2.27.9-3.74v-4.38c0-1.53-.3-2.79-.9-3.79-.6-1-1.43-1.76-2.49-2.29-1.06-.53-2.36-.8-3.88-.8h-15.94v18.13Z" fill="#b2b2b2"/><path d="M223.12,70.28h-8.17c-1.79,0-3.47-.45-5.03-1.34-1.56-.9-2.81-2.22-3.74-3.98-.93-1.76-1.39-3.87-1.39-6.33v-1.3l3.19,3.79h-3.59c-.8,3.39-2.56,5.96-5.28,7.72-2.72,1.76-6.08,2.64-10.06,2.64-5.25,0-9.26-1.41-12.05-4.23-2.79-2.82-4.18-6.49-4.18-11.01,0-3.72.91-6.77,2.74-9.16,1.83-2.39,4.42-4.18,7.77-5.38,3.35-1.2,7.32-1.79,11.9-1.79h8.27v-3.29c0-2.52-.66-4.53-1.99-6.03-1.33-1.49-3.55-2.24-6.67-2.24-2.92,0-5.25.63-6.97,1.89-1.73,1.26-3.16,2.69-4.28,4.28l-8.77-7.77c2.12-3.12,4.81-5.56,8.07-7.32,3.25-1.76,7.6-2.64,13.05-2.64,7.37,0,12.93,1.64,16.69,4.93,3.75,3.29,5.63,8.02,5.63,14.19v22.91h4.88v11.46ZM203.5,48.26h-7.17c-2.86,0-5.01.5-6.47,1.49-1.46,1-2.19,2.46-2.19,4.38v1.49c0,1.86.6,3.25,1.79,4.18,1.2.93,2.89,1.39,5.08,1.39,1.66,0,3.15-.23,4.48-.7,1.33-.46,2.41-1.2,3.24-2.19.83-1,1.25-2.29,1.25-3.88v-6.18Z" fill="#b2b2b2"/><path d="M256.39,42.39l7.67-24.4h13.75l-20.12,60.36c-.86,2.66-1.98,4.86-3.34,6.62-1.36,1.76-3.07,3.07-5.13,3.93-2.06.86-4.58,1.3-7.57,1.3h-9.16v-11.46h9.86l1.79-5.78-18.33-54.99h14.64l7.67,24.4,3.78,15.14h.6l3.88-15.14Z" fill="#b2b2b2"/><path d="M1.88,132.61v-45.29h10.45l6.03,11.55,5.06,9.67h.13l5-9.67,5.97-11.55h10.51v45.29h-9.28v-29.72h-.2l-3.31,6.62-8.82,16.03-8.63-15.96-3.44-7.14h-.19v30.17H1.88Z" fill="#b2b2b2"/><path d="M85.01,132.61h-5.32c-1.17,0-2.26-.29-3.28-.88-1.02-.58-1.83-1.45-2.43-2.6-.61-1.15-.91-2.52-.91-4.12v-.84l2.08,2.47h-2.34c-.52,2.21-1.67,3.88-3.44,5.03-1.77,1.15-3.96,1.72-6.55,1.72-3.42,0-6.03-.92-7.85-2.76-1.82-1.84-2.72-4.23-2.72-7.17,0-2.42.59-4.41,1.78-5.97,1.19-1.56,2.88-2.73,5.06-3.5,2.18-.78,4.77-1.17,7.75-1.17h5.39v-2.14c0-1.64-.43-2.95-1.3-3.93-.87-.97-2.31-1.46-4.35-1.46-1.9,0-3.42.41-4.54,1.23-1.13.82-2.06,1.75-2.79,2.79l-5.71-5.06c1.38-2.03,3.14-3.62,5.26-4.77,2.12-1.15,4.95-1.72,8.5-1.72,4.8,0,8.42,1.07,10.87,3.21,2.44,2.14,3.67,5.22,3.67,9.25v14.92h3.18v7.46ZM72.22,118.27h-4.67c-1.86,0-3.27.32-4.22.97-.95.65-1.43,1.6-1.43,2.85v.97c0,1.21.39,2.12,1.17,2.73.78.61,1.88.91,3.31.91,1.08,0,2.05-.15,2.92-.45.86-.3,1.57-.78,2.11-1.43.54-.65.81-1.49.81-2.53v-4.02Z" fill="#b2b2b2"/><path d="M108.69,132.61h-5.71c-3.29,0-5.8-.84-7.53-2.53-1.73-1.69-2.6-4.15-2.6-7.4v-16.68h-4.8v-7.46h2.4c1.3,0,2.18-.31,2.66-.94.48-.63.71-1.52.71-2.69v-5.58h8.63v9.21h6.75v7.46h-6.75v19.14h6.23v7.46Z" fill="#b2b2b2"/><path d="M129.39,133.39c-5.1,0-9.03-1.61-11.78-4.83-2.75-3.22-4.12-7.56-4.12-13.01s1.37-9.78,4.12-12.98c2.75-3.2,6.67-4.8,11.78-4.8,3.46,0,6.35.78,8.66,2.34,2.31,1.56,3.97,3.74,4.96,6.55l-7.79,3.37c-.3-1.3-.93-2.4-1.88-3.31-.95-.91-2.27-1.36-3.96-1.36-1.95,0-3.42.64-4.41,1.91-1,1.28-1.49,3-1.49,5.16v6.36c0,2.12.5,3.83,1.49,5.13.99,1.3,2.47,1.95,4.41,1.95s3.32-.52,4.25-1.56c.93-1.04,1.63-2.23,2.11-3.57l7.46,3.24c-1.13,3.24-2.88,5.62-5.26,7.14-2.38,1.51-5.23,2.27-8.57,2.27Z" fill="#b2b2b2"/><path d="M149.18,132.61v-48.02h9.6v19.73h.39c.61-1.77,1.66-3.31,3.18-4.61,1.51-1.3,3.61-1.95,6.29-1.95,3.46,0,6.1,1.18,7.92,3.54,1.82,2.36,2.73,5.68,2.73,9.96v21.35h-9.6v-20.57c0-2.16-.35-3.79-1.04-4.87-.69-1.08-1.93-1.62-3.7-1.62-1.04,0-2.02.18-2.95.55-.93.37-1.7.92-2.3,1.65-.61.74-.91,1.67-.91,2.79v22.06h-9.6Z" fill="#b2b2b2"/><path d="M188.11,87.32h9.6v27.77c0,2.12.27,3.88.81,5.29.54,1.41,1.42,2.47,2.63,3.18,1.21.71,2.79,1.07,4.74,1.07s3.51-.36,4.7-1.07c1.19-.71,2.07-1.77,2.63-3.18.56-1.41.84-3.17.84-5.29v-27.77h9.6v26.73c0,4.46-.58,8.11-1.75,10.97-1.17,2.86-3.05,4.96-5.65,6.33-2.6,1.36-6.06,2.04-10.38,2.04s-7.79-.68-10.38-2.04c-2.6-1.36-4.48-3.47-5.65-6.33-1.17-2.85-1.75-6.51-1.75-10.97v-26.73Z" fill="#b2b2b2"/><path d="M232.89,145.59v-47.04h9.6v5.71h.32c.48-1.9,1.57-3.46,3.28-4.67,1.71-1.21,3.67-1.82,5.87-1.82,2.9,0,5.31.68,7.24,2.04,1.92,1.36,3.38,3.36,4.38,6,.99,2.64,1.49,5.88,1.49,9.73s-.5,7.11-1.49,9.77c-1,2.66-2.46,4.67-4.38,6.03-1.93,1.36-4.34,2.04-7.24,2.04-2.21,0-4.16-.62-5.87-1.85-1.71-1.23-2.8-2.78-3.28-4.64h-.32v18.69h-9.6ZM248.79,125.61c1.82,0,3.32-.65,4.51-1.95,1.19-1.3,1.78-3.01,1.78-5.13v-5.9c0-2.16-.6-3.88-1.78-5.16-1.19-1.28-2.69-1.91-4.51-1.91-1.21,0-2.29.19-3.24.58-.95.39-1.7.96-2.24,1.72-.54.76-.81,1.66-.81,2.69v10.06c0,1.04.27,1.94.81,2.69.54.76,1.29,1.33,2.24,1.72.95.39,2.03.58,3.24.58Z" fill="#b2b2b2"/><path d="M278.24,133.39c-2.03,0-3.5-.48-4.41-1.43-.91-.95-1.36-2.12-1.36-3.5v-1.56c0-1.38.45-2.55,1.36-3.5.91-.95,2.38-1.43,4.41-1.43s3.5.48,4.41,1.43c.91.95,1.36,2.12,1.36,3.5v1.56c0,1.39-.45,2.55-1.36,3.5-.91.95-2.38,1.43-4.41,1.43ZM280.39,118.34h-4.09l-3.05-18.43v-12.59h10.12v12.59l-2.99,18.43Z" fill="#b2b2b2"/></svg>